<svg xmlns="http://www.w3.org/2000/svg" viewBox="0 0 100 100" width="100" height="100">
  <defs>
    <linearGradient id="grad1" x1="0%" y1="0%" x2="100%" y2="100%">
      <stop offset="0%" style="stop-color:#25D366;stop-opacity:1" />
      <stop offset="100%" style="stop-color:#128C7E;stop-opacity:1" />
    </linearGradient>
  </defs>
  
  <!-- Background circle -->
  <circle cx="50" cy="50" r="45" fill="url(#grad1)" stroke="#fff" stroke-width="2"/>
  
  <!-- Chat bubble -->
  <path d="M25 35 C25 30, 30 25, 35 25 L65 25 C70 25, 75 30, 75 35 L75 55 C75 60, 70 65, 65 65 L45 65 L35 75 L35 65 C30 65, 25 60, 25 55 Z" fill="#fff"/>
  
  <!-- Message lines -->
  <rect x="35" y="35" width="25" height="3" rx="1.5" fill="#25D366"/>
  <rect x="35" y="42" width="20" height="3" rx="1.5" fill="#25D366"/>
  <rect x="35" y="49" width="15" height="3" rx="1.5" fill="#25D366"/>
  
  <!-- TS text -->
  <text x="50" y="85" font-family="Arial, sans-serif" font-size="12" font-weight="bold" text-anchor="middle" fill="#fff">TS</text>
</svg>
